<svg width="148" height="104" viewBox="0 0 148 104" fill="none" xmlns="http://www.w3.org/2000/svg">
<path d="M75.4998 44.8236L55.9866 51.1329C54.2123 51.7066 52.2827 51.552 50.6223 50.703C48.962 49.854 47.7069 48.3802 47.1332 46.6059L40.8239 27.0927C40.7761 26.9448 40.6715 26.822 40.5331 26.7513C40.3948 26.6805 40.234 26.6676 40.0861 26.7155L32.6642 29.1152C32.248 28.7173 31.7968 28.3578 31.3161 28.0409C29.0641 26.566 26.3214 26.2396 23.591 27.1225C18.3392 28.8206 16.0051 34.1338 17.9155 40.0421L24.405 60.1127C25.5317 63.5972 29.0427 64.7713 31.7829 63.8853C32.5199 63.6558 33.2036 63.2815 33.7939 62.7843C34.3843 62.2871 34.8694 61.677 35.2208 60.9898C35.5722 60.3025 35.7828 59.5521 35.8403 58.7823C35.8977 58.0126 35.8009 57.2392 35.5554 56.5074L28.7053 35.3217C28.5141 34.7303 28.0957 34.239 27.5423 33.956C26.9888 33.673 26.3456 33.6215 25.7542 33.8127C25.1627 34.0039 24.6715 34.4223 24.3885 34.9757C24.1055 35.5292 24.0539 36.1724 24.2452 36.7638L31.0953 57.9495C31.1479 58.0957 31.1699 58.2511 31.1601 58.4062C31.1502 58.5612 31.1086 58.7126 31.0379 58.8509C30.9672 58.9892 30.8688 59.1115 30.7489 59.2103C30.629 59.3091 30.4901 59.3822 30.3408 59.4251C30.0299 59.5256 29.1608 59.5849 28.8652 58.6706L22.3756 38.5999C21.504 35.9043 21.7451 32.6457 25.0331 31.5826C29.1713 30.2446 30.852 34.3428 31.268 35.6293L37.5209 54.9682C38.3074 57.4004 38.2561 59.8463 37.3768 61.8595C36.4846 63.9045 34.7995 65.3731 32.5039 66.1153C30.2084 66.8576 27.9825 66.6536 26.0619 65.518C24.1704 64.4007 22.6968 62.4478 21.9104 60.0156L18.2091 48.5684C18.0179 47.9769 17.5995 47.4857 17.0461 47.2027C16.4926 46.9197 15.8494 46.8681 15.258 47.0594C14.6665 47.2506 14.1753 47.669 13.8923 48.2224C13.6093 48.7759 13.5577 49.4191 13.749 50.0105L17.4503 61.4578C19.7717 68.6372 26.1156 72.4546 32.8157 70.8886L37.8785 86.5465C38.6434 88.9124 40.3169 90.8774 42.5306 92.0094C44.7444 93.1413 47.3172 93.3475 49.683 92.5826L78.674 83.2088C81.0398 82.4438 83.0048 80.7704 84.1368 78.5566C85.2688 76.3428 85.475 73.77 84.71 71.4042L76.2376 45.2008C76.1897 45.053 76.0852 44.9302 75.9468 44.8594C75.8084 44.7887 75.6476 44.7758 75.4998 44.8236Z" fill="url(#paint0_linear_963_5229)"/>
<path d="M54.5433 46.6724L72.6362 40.8224C72.6911 40.8044 72.7394 40.7705 72.7751 40.7251C72.8108 40.6797 72.8323 40.6248 72.8369 40.5672C72.8415 40.5096 72.829 40.452 72.8009 40.4015C72.7728 40.351 72.7304 40.31 72.679 40.2835L46.1538 26.7204C46.1023 26.6942 46.0442 26.6839 45.9869 26.6906C45.9295 26.6974 45.8754 26.721 45.8314 26.7584C45.7874 26.7959 45.7555 26.8455 45.7396 26.901C45.7237 26.9565 45.7246 27.0155 45.7421 27.0706L51.5922 45.1634C51.7834 45.7549 52.2018 46.2461 52.7552 46.5291C53.3087 46.8121 53.9519 46.8637 54.5433 46.6724Z" fill="url(#paint1_linear_963_5229)"/>
<path d="M126.728 51.9436L124.923 52.8069L126.728 51.9436C126.431 51.3249 125.902 50.8492 125.255 50.6211L105.915 43.8005C104.656 43.3567 103.626 42.4312 103.05 41.2276C102.474 40.024 102.399 38.6408 102.843 37.3824L109.664 18.042C109.892 17.3952 109.854 16.6843 109.558 16.0657C109.261 15.447 108.732 14.9713 108.085 14.7432L95.3756 10.2611C92.5305 9.25778 89.4034 9.42573 86.6821 10.728C83.9608 12.0303 81.8684 14.3603 80.865 17.2054L65.2751 61.412C64.2717 64.2571 64.4397 67.3842 65.742 70.1055C67.0443 72.8268 69.3743 74.9192 72.2194 75.9226L103.164 86.8356C106.009 87.8389 109.136 87.671 111.857 86.3687C114.579 85.0664 116.671 82.7364 117.675 79.8913L126.834 53.9199C127.062 53.2731 127.024 52.5622 126.728 51.9436ZM104.751 68.2423L82.6473 60.4473C82.5614 60.417 82.491 60.3538 82.4516 60.2715C82.4122 60.1893 82.4072 60.0948 82.4375 60.0088C82.4678 59.9229 82.5311 59.8524 82.6133 59.8131C82.6955 59.7737 82.79 59.7687 82.876 59.799L104.979 67.5939C105.065 67.6243 105.136 67.6875 105.175 67.7697C105.214 67.852 105.219 67.9465 105.189 68.0325C105.159 68.1184 105.096 68.1889 105.013 68.2282C104.931 68.2676 104.837 68.2726 104.751 68.2423ZM108.648 57.1907L86.5448 49.3957C86.4589 49.3654 86.3884 49.3021 86.3491 49.2199C86.3097 49.1377 86.3047 49.0432 86.335 48.9572C86.3653 48.8712 86.4285 48.8008 86.5108 48.7614C86.593 48.7221 86.6875 48.717 86.7735 48.7473L108.877 56.5423C108.963 56.5726 109.033 56.6359 109.073 56.7181C109.112 56.8003 109.117 56.8948 109.087 56.9808C109.056 57.0668 108.993 57.1372 108.911 57.1766C108.829 57.2159 108.734 57.221 108.648 57.1907Z" fill="url(#paint2_linear_963_5229)" stroke="#F8FAFA" stroke-width="4"/>
<path d="M125.102 47.1878L112.242 20.3148C112.216 20.2628 112.177 20.2194 112.127 20.1899C112.077 20.1605 112.02 20.1465 111.962 20.1495C111.904 20.1526 111.849 20.1726 111.803 20.2071C111.756 20.2417 111.721 20.2891 111.702 20.3435L105.378 38.2762C105.171 38.8624 105.206 39.5067 105.474 40.0674C105.742 40.6281 106.222 41.0592 106.808 41.266L124.741 47.5901C124.796 47.6091 124.855 47.6115 124.911 47.5971C124.967 47.5827 125.017 47.5521 125.056 47.5091C125.094 47.4661 125.119 47.4126 125.127 47.3554C125.136 47.2983 125.127 47.2399 125.102 47.1878Z" fill="url(#paint3_linear_963_5229)"/>
<path d="M65.3183 25.4217C65.0812 25.4229 64.8495 25.3518 64.654 25.2178C64.4585 25.0837 64.3086 24.8933 64.2242 24.6717L62.3567 19.8155C62.3189 19.7176 62.261 19.6288 62.1868 19.5546C62.1127 19.4804 62.0238 19.4225 61.9259 19.3847L57.0683 17.5158C56.847 17.4309 56.6567 17.2809 56.5224 17.0855C56.3882 16.8902 56.3163 16.6588 56.3163 16.4217C56.3163 16.1847 56.3882 15.9533 56.5224 15.758C56.6567 15.5626 56.847 15.4126 57.0683 15.3277L61.9245 13.4602C62.0224 13.4224 62.1112 13.3645 62.1854 13.2903C62.2596 13.2161 62.3175 13.1273 62.3553 13.0294L64.2242 8.17175C64.3091 7.95047 64.4592 7.76014 64.6545 7.62589C64.8498 7.49164 65.0813 7.41977 65.3183 7.41977C65.5553 7.41977 65.7867 7.49164 65.9821 7.62589C66.1774 7.76014 66.3274 7.95047 66.4123 8.17175L68.2798 13.028C68.3177 13.1259 68.3755 13.2147 68.4497 13.2889C68.5239 13.3631 68.6128 13.421 68.7106 13.4588L73.5387 15.3164C73.769 15.4018 73.9674 15.556 74.1069 15.7582C74.2464 15.9603 74.3202 16.2005 74.3183 16.4461C74.3147 16.679 74.2413 16.9055 74.1076 17.0962C73.9739 17.2869 73.786 17.4331 73.5683 17.5158L68.712 19.3833C68.6142 19.4211 68.5253 19.479 68.4511 19.5532C68.3769 19.6274 68.3191 19.7162 68.2812 19.8141L66.4123 24.6717C66.328 24.8933 66.178 25.0837 65.9825 25.2178C65.787 25.3518 65.5553 25.4229 65.3183 25.4217ZM59.6933 9.67175C59.5543 9.67174 59.4186 9.62963 59.3041 9.55098C59.1895 9.47232 59.1015 9.3608 59.0516 9.23112L58.2612 7.17612C58.2441 7.13118 58.2177 7.09036 58.1837 7.05635C58.1497 7.02234 58.1088 6.99591 58.0639 6.97878L56.0089 6.18846C55.8792 6.13853 55.7677 6.05049 55.6891 5.93594C55.6105 5.82138 55.5684 5.68569 55.5684 5.54675C55.5684 5.4078 55.6105 5.27211 55.6891 5.15756C55.7677 5.043 55.8792 4.95496 56.0089 4.90503L58.0639 4.11471C58.1088 4.09751 58.1496 4.07104 58.1836 4.03704C58.2176 4.00304 58.244 3.96227 58.2612 3.91737L59.0445 1.88065C59.0887 1.76075 59.1647 1.65515 59.2644 1.5752C59.3641 1.49525 59.4837 1.44398 59.6103 1.4269C59.7623 1.40842 59.9162 1.44122 60.0475 1.52011C60.1788 1.59899 60.2799 1.71945 60.335 1.86237L61.1253 3.91737C61.1425 3.96227 61.169 4.00304 61.203 4.03704C61.237 4.07104 61.2777 4.09751 61.3226 4.11471L63.3776 4.90503C63.5073 4.95496 63.6188 5.043 63.6974 5.15756C63.7761 5.27211 63.8182 5.4078 63.8182 5.54675C63.8182 5.68569 63.7761 5.82138 63.6974 5.93594C63.6188 6.05049 63.5073 6.13853 63.3776 6.18846L61.3226 6.97878C61.2777 6.99591 61.2369 7.02234 61.2029 7.05635C61.1689 7.09036 61.1424 7.13118 61.1253 7.17612L60.335 9.23112C60.2851 9.3608 60.197 9.47232 60.0825 9.55098C59.9679 9.62963 59.8322 9.67174 59.6933 9.67175ZM74.3183 13.4217C74.1667 13.4217 74.0187 13.3757 73.8937 13.2899C73.7688 13.204 73.6728 13.0823 73.6184 12.9408L72.5478 10.1578C72.529 10.1088 72.5 10.0643 72.4629 10.0271C72.4258 9.98997 72.3812 9.96105 72.3322 9.94221L69.5492 8.87159C69.4078 8.81711 69.2863 8.72108 69.2005 8.59616C69.1148 8.47123 69.0689 8.32327 69.0689 8.17175C69.0689 8.02023 69.1148 7.87226 69.2005 7.74733C69.2863 7.62241 69.4078 7.52638 69.5492 7.4719L72.3322 6.40128C72.3812 6.38244 72.4258 6.35352 72.4629 6.31637C72.5 6.27923 72.529 6.23469 72.5478 6.18565L73.6105 3.42237C73.659 3.2917 73.742 3.17662 73.8507 3.08937C73.9594 3.00213 74.0897 2.94598 74.2278 2.9269C74.3937 2.90682 74.5616 2.94272 74.7048 3.02892C74.8479 3.11511 74.9582 3.24666 75.0181 3.40268L76.0887 6.18565C76.1076 6.23469 76.1365 6.27923 76.1736 6.31637C76.2108 6.35352 76.2553 6.38244 76.3044 6.40128L79.0873 7.4719C79.2287 7.52638 79.3503 7.62241 79.436 7.74733C79.5218 7.87226 79.5677 8.02023 79.5677 8.17175C79.5677 8.32327 79.5218 8.47123 79.436 8.59616C79.3503 8.72108 79.2287 8.81711 79.0873 8.87159L76.3044 9.94221C76.2553 9.96105 76.2108 9.98997 76.1736 10.0271C76.1365 10.0643 76.1076 10.1088 76.0887 10.1578L75.0181 12.9408C74.9637 13.0823 74.8677 13.204 74.7428 13.2899C74.6179 13.3757 74.4699 13.4217 74.3183 13.4217Z" fill="url(#paint4_linear_963_5229)"/>
<path d="M124.59 52.5073L105.249 45.6867C103.491 45.0665 102.051 43.7731 101.246 42.091C100.441 40.4089 100.337 38.4759 100.957 36.7172L107.778 17.3768C107.829 17.2303 107.821 17.0692 107.753 16.929C107.686 16.7889 107.566 16.6811 107.42 16.6294L94.7105 12.1473C92.3656 11.3203 89.7883 11.4588 87.5455 12.5321C85.3027 13.6054 83.5781 15.5257 82.7512 17.8706L67.1612 62.0772C66.3343 64.422 66.4727 66.9993 67.546 69.2421C68.6194 71.4849 70.5397 73.2095 72.8845 74.0365L103.829 84.9494C106.174 85.7764 108.751 85.6379 110.994 84.5646C113.237 83.4913 114.961 81.571 115.788 79.2261L124.948 53.2547C124.999 53.1082 124.991 52.9471 124.923 52.8069C124.856 52.6668 124.736 52.559 124.59 52.5073ZM104.085 70.1285L81.9822 62.3335C81.396 62.1268 80.9159 61.6956 80.6475 61.1349C80.3792 60.5742 80.3446 59.9299 80.5513 59.3437C80.7581 58.7574 81.1892 58.2774 81.7499 58.009C82.3106 57.7407 82.955 57.7061 83.5412 57.9128L105.644 65.7078C106.231 65.9145 106.711 66.3457 106.979 66.9064C107.247 67.4671 107.282 68.1114 107.075 68.6976C106.869 69.2838 106.437 69.7639 105.877 70.0323C105.316 70.3006 104.672 70.3352 104.085 70.1285ZM107.983 59.0768L85.8797 51.2818C85.2934 51.0751 84.8134 50.644 84.545 50.0833C84.2767 49.5226 84.2421 48.8782 84.4488 48.292C84.6556 47.7058 85.0867 47.2257 85.6474 46.9574C86.2081 46.6891 86.8524 46.6545 87.4387 46.8612L109.542 54.6562C110.128 54.8629 110.608 55.294 110.877 55.8547C111.145 56.4154 111.179 57.0598 110.973 57.646C110.766 58.2322 110.335 58.7123 109.774 58.9806C109.213 59.2489 108.569 59.2836 107.983 59.0768Z" fill="url(#paint5_linear_963_5229)"/>
<path d="M125.102 47.1878L112.242 20.3148C112.216 20.2628 112.177 20.2194 112.127 20.1899C112.077 20.1605 112.02 20.1465 111.962 20.1495C111.904 20.1526 111.849 20.1726 111.803 20.2071C111.756 20.2417 111.721 20.2891 111.702 20.3435L105.378 38.2762C105.171 38.8624 105.206 39.5067 105.474 40.0674C105.742 40.6281 106.222 41.0592 106.808 41.266L124.741 47.5901C124.796 47.6091 124.855 47.6115 124.911 47.5971C124.967 47.5827 125.017 47.5521 125.056 47.5091C125.094 47.4661 125.119 47.4126 125.127 47.3554C125.136 47.2983 125.127 47.2399 125.102 47.1878Z" fill="url(#paint6_linear_963_5229)"/>
<defs>
<linearGradient id="paint0_linear_963_5229" x1="15.0539" y1="23.9335" x2="75.7407" y2="35.605" gradientUnits="userSpaceOnUse">
<stop stop-color="#6215E0"/>
<stop offset="0.754166" stop-color="#A36BFF"/>
<stop offset="1" stop-color="#C9A8FF"/>
</linearGradient>
<linearGradient id="paint1_linear_963_5229" x1="48.248" y1="24.1218" x2="68.7344" y2="29.4104" gradientUnits="userSpaceOnUse">
<stop stop-color="#6215E0"/>
<stop offset="0.754166" stop-color="#A36BFF"/>
<stop offset="1" stop-color="#C9A8FF"/>
</linearGradient>
<linearGradient id="paint2_linear_963_5229" x1="95.0191" y1="6.65382" x2="132.171" y2="45.0209" gradientUnits="userSpaceOnUse">
<stop stop-color="#6215E0"/>
<stop offset="0.754166" stop-color="#A36BFF"/>
<stop offset="1" stop-color="#C9A8FF"/>
</linearGradient>
<linearGradient id="paint3_linear_963_5229" x1="115.483" y1="19.5192" x2="128.562" y2="36.1506" gradientUnits="userSpaceOnUse">
<stop stop-color="#6215E0"/>
<stop offset="0.754166" stop-color="#A36BFF"/>
<stop offset="1" stop-color="#C9A8FF"/>
</linearGradient>
<linearGradient id="paint4_linear_963_5229" x1="59.217" y1="-0.510325" x2="79.021" y2="12.0539" gradientUnits="userSpaceOnUse">
<stop stop-color="#6215E0"/>
<stop offset="0.754166" stop-color="#A36BFF"/>
<stop offset="1" stop-color="#C9A8FF"/>
</linearGradient>
<linearGradient id="paint5_linear_963_5229" x1="95.0191" y1="6.65382" x2="132.171" y2="45.0209" gradientUnits="userSpaceOnUse">
<stop stop-color="#6215E0"/>
<stop offset="0.754166" stop-color="#A36BFF"/>
<stop offset="1" stop-color="#C9A8FF"/>
</linearGradient>
<linearGradient id="paint6_linear_963_5229" x1="115.483" y1="19.5192" x2="128.562" y2="36.1506" gradientUnits="userSpaceOnUse">
<stop stop-color="#6215E0"/>
<stop offset="0.754166" stop-color="#A36BFF"/>
<stop offset="1" stop-color="#C9A8FF"/>
</linearGradient>
</defs>
</svg>
