<svg width="675" height="287" viewBox="0 0 675 287" fill="none" xmlns="http://www.w3.org/2000/svg">
<path d="M339.082 116.527L250.842 145.058C242.819 147.653 234.093 146.953 226.585 143.114C219.077 139.275 213.401 132.61 210.807 124.587L182.276 36.3472C182.059 35.6786 181.587 35.1232 180.961 34.8032C180.335 34.4833 179.608 34.425 178.939 34.6412L145.377 45.4932C143.495 43.6939 141.455 42.0678 139.281 40.6348C129.097 33.9652 116.695 32.4895 104.348 36.4818C80.5985 44.1608 70.0437 68.1872 78.6825 94.9049L108.029 185.666C113.124 201.423 129 206.732 141.392 202.725C144.724 201.688 147.816 199.995 150.486 197.747C153.155 195.498 155.349 192.739 156.938 189.632C158.527 186.524 159.48 183.13 159.739 179.65C159.999 176.169 159.561 172.671 158.451 169.362L127.475 73.5592C126.61 70.8847 124.718 68.6631 122.215 67.3834C119.713 66.1037 116.804 65.8706 114.13 66.7354C111.455 67.6002 109.233 69.492 107.954 71.9947C106.674 74.4975 106.441 77.406 107.306 80.0806L138.282 175.884C138.52 176.545 138.62 177.247 138.575 177.948C138.531 178.65 138.343 179.334 138.023 179.959C137.703 180.585 137.258 181.138 136.716 181.585C136.174 182.031 135.546 182.362 134.87 182.556C133.465 183.011 129.535 183.279 128.198 179.144L98.8515 88.3835C94.9102 76.1939 96.0005 61.4584 110.869 56.6509C129.582 50.6003 137.182 69.1325 139.063 74.95L167.34 162.402C170.896 173.4 170.664 184.461 166.688 193.565C162.653 202.812 155.033 209.453 144.652 212.81C134.272 216.166 124.206 215.244 115.521 210.108C106.968 205.056 100.304 196.225 96.7479 185.227L80.0104 133.461C79.1456 130.787 77.2538 128.565 74.751 127.286C72.2483 126.006 69.3398 125.773 66.6652 126.638C63.9906 127.502 61.7691 129.394 60.4894 131.897C59.2097 134.4 58.9766 137.308 59.8414 139.983L76.5789 191.748C87.0762 224.214 115.764 241.476 146.062 234.395L168.956 305.201C172.415 315.899 179.983 324.785 189.994 329.904C200.005 335.023 211.639 335.955 222.337 332.496L353.436 290.107C364.134 286.648 373.02 279.081 378.139 269.07C383.258 259.059 384.19 247.425 380.731 236.726L342.418 118.233C342.202 117.565 341.729 117.009 341.103 116.689C340.478 116.369 339.75 116.311 339.082 116.527Z" fill="url(#paint0_linear_930_7833)"/>
<path d="M244.321 124.888L326.138 98.4339C326.386 98.3525 326.604 98.1995 326.766 97.9942C326.927 97.7889 327.025 97.5405 327.045 97.2801C327.066 97.0197 327.009 96.759 326.882 96.5307C326.755 96.3025 326.564 96.1169 326.331 95.9973L206.383 34.6638C206.15 34.5456 205.887 34.4989 205.628 34.5295C205.369 34.5601 205.124 34.6668 204.925 34.836C204.726 35.0052 204.582 35.2295 204.51 35.4807C204.438 35.7318 204.442 35.9986 204.521 36.2475L230.975 118.064C231.84 120.739 233.732 122.961 236.235 124.24C238.738 125.52 241.646 125.753 244.321 124.888Z" fill="url(#paint1_linear_930_7833)"/>
<path d="M561.741 149.384L474.282 118.541C466.83 115.913 460.727 110.432 457.316 103.303C453.904 96.1753 453.464 87.9841 456.093 80.5316L486.936 -6.92659C487.346 -8.08955 487.277 -9.3678 486.745 -10.4801C486.212 -11.5925 485.26 -12.4478 484.097 -12.8579L426.625 -33.1263C415.521 -37.0422 403.316 -36.3867 392.696 -31.3041C382.075 -26.2214 373.909 -17.128 369.993 -6.02412L299.494 193.88C295.578 204.984 296.234 217.189 301.316 227.809C306.399 238.43 315.492 246.596 326.596 250.512L466.529 299.861C477.633 303.777 489.838 303.122 500.458 298.039C511.079 292.956 519.245 283.863 523.161 272.759L564.579 155.315C564.989 154.152 564.921 152.874 564.388 151.762C563.856 150.649 562.904 149.794 561.741 149.384ZM469.019 229.068L369.067 193.818C366.916 193.06 365.155 191.478 364.17 189.421C363.186 187.364 363.059 185 363.817 182.85C364.576 180.699 366.158 178.938 368.215 177.953C370.272 176.969 372.635 176.842 374.786 177.6L474.738 212.85C476.889 213.608 478.65 215.19 479.635 217.247C480.619 219.304 480.746 221.668 479.988 223.818C479.229 225.969 477.648 227.73 475.59 228.715C473.533 229.699 471.17 229.826 469.019 229.068ZM486.644 179.092L386.691 143.842C384.541 143.084 382.779 141.502 381.795 139.445C380.81 137.388 380.683 135.024 381.442 132.874C382.2 130.723 383.782 128.962 385.839 127.977C387.896 126.993 390.26 126.866 392.411 127.624L492.363 162.873C494.514 163.632 496.275 165.214 497.259 167.271C498.244 169.328 498.371 171.692 497.612 173.842C496.854 175.993 495.272 177.754 493.215 178.739C491.158 179.723 488.794 179.85 486.644 179.092Z" fill="url(#paint2_linear_930_7833)" stroke="#F8FAFA" stroke-width="4"/>
<path d="M563.392 127.215L505.236 5.69466C505.123 5.45937 504.943 5.26287 504.718 5.12987C504.493 4.99687 504.234 4.93329 503.973 4.94713C503.712 4.96098 503.461 5.05164 503.252 5.20769C503.042 5.36375 502.884 5.57826 502.796 5.82424L474.197 86.9167C473.263 89.5676 473.419 92.4813 474.632 95.0168C475.846 97.5524 478.017 99.502 480.668 100.437L561.76 129.035C562.007 129.121 562.274 129.132 562.526 129.067C562.779 129.001 563.007 128.863 563.182 128.668C563.356 128.474 563.469 128.232 563.507 127.974C563.544 127.715 563.504 127.451 563.392 127.215Z" fill="url(#paint3_linear_930_7833)"/>
<path d="M35.4954 66.8263C34.913 66.8292 34.3437 66.6575 33.8633 66.3342C33.383 66.0109 33.0146 65.5514 32.8074 65.0171L28.2192 53.3028C28.1262 53.0668 27.9841 52.8524 27.8018 52.6734C27.6196 52.4945 27.4012 52.3549 27.1608 52.2637L15.2261 47.7555C14.6825 47.5506 14.2149 47.1887 13.885 46.7176C13.5552 46.2464 13.3786 45.6881 13.3786 45.1164C13.3786 44.5447 13.5552 43.9864 13.885 43.5152C14.2149 43.044 14.6825 42.6822 15.2261 42.4773L27.1573 37.9725C27.3978 37.8813 27.6161 37.7417 27.7984 37.5627C27.9806 37.3838 28.1228 37.1694 28.2157 36.9334L32.8074 25.2157C33.016 24.6819 33.3846 24.2228 33.8645 23.899C34.3444 23.5751 34.913 23.4018 35.4954 23.4018C36.0777 23.4018 36.6463 23.5751 37.1262 23.899C37.6061 24.2228 37.9747 24.6819 38.1833 25.2157L42.7716 36.93C42.8645 37.166 43.0066 37.3804 43.1889 37.5593C43.3712 37.7383 43.5895 37.8779 43.8299 37.9691L55.6921 42.4502C56.2578 42.6561 56.7452 43.0281 57.0879 43.5157C57.4306 44.0033 57.612 44.5828 57.6073 45.1752C57.5985 45.737 57.4182 46.2832 57.0896 46.7433C56.7611 47.2033 56.2995 47.5559 55.7646 47.7555L43.8334 52.2603C43.593 52.3515 43.3746 52.4911 43.1924 52.6701C43.0101 52.849 42.8679 53.0634 42.775 53.2994L38.1833 65.0171C37.9761 65.5514 37.6077 66.0109 37.1274 66.3342C36.6471 66.6575 36.0777 66.8292 35.4954 66.8263ZM21.6754 28.834C21.334 28.834 21.0006 28.7324 20.7192 28.5427C20.4377 28.3529 20.2214 28.0839 20.0988 27.7711L18.1571 22.814C18.115 22.7056 18.0501 22.6072 17.9665 22.5251C17.8829 22.4431 17.7827 22.3793 17.6722 22.338L12.6234 20.4316C12.3048 20.3111 12.0309 20.0988 11.8376 19.8224C11.6444 19.5461 11.541 19.2188 11.541 18.8836C11.541 18.5485 11.6444 18.2212 11.8376 17.9448C12.0309 17.6685 12.3048 17.4561 12.6234 17.3357L17.6722 15.4293C17.7826 15.3878 17.8827 15.3239 17.9663 15.2419C18.0498 15.1599 18.1148 15.0616 18.1571 14.9532L20.0815 10.0403C20.1901 9.75102 20.3768 9.49629 20.6217 9.30344C20.8666 9.1106 21.1604 8.98692 21.4716 8.94572C21.8451 8.90113 22.2231 8.98026 22.5457 9.17055C22.8682 9.36084 23.1168 9.6514 23.252 9.99616L25.1937 14.9532C25.236 15.0616 25.301 15.1599 25.3846 15.2419C25.4681 15.3239 25.5683 15.3878 25.6786 15.4293L30.7275 17.3357C31.0461 17.4561 31.32 17.6685 31.5132 17.9448C31.7064 18.2212 31.8098 18.5485 31.8098 18.8836C31.8098 19.2188 31.7064 19.5461 31.5132 19.8224C31.32 20.0988 31.0461 20.3111 30.7275 20.4316L25.6786 22.338C25.5682 22.3793 25.4679 22.4431 25.3843 22.5251C25.3008 22.6072 25.2358 22.7056 25.1937 22.814L23.252 27.7711C23.1294 28.0839 22.9131 28.3529 22.6317 28.5427C22.3502 28.7324 22.0168 28.834 21.6754 28.834ZM57.6073 37.8798C57.2348 37.8797 56.8712 37.7687 56.5642 37.5616C56.2573 37.3545 56.0215 37.061 55.8878 36.7197L53.2574 30.0066C53.2112 29.8883 53.1401 29.7808 53.0488 29.6912C52.9576 29.6016 52.8482 29.5319 52.7277 29.4864L45.8903 26.9039C45.5429 26.7724 45.2442 26.5408 45.0335 26.2395C44.8229 25.9381 44.7101 25.5812 44.7101 25.2157C44.7101 24.8502 44.8229 24.4933 45.0335 24.1919C45.2442 23.8906 45.5429 23.6589 45.8903 23.5275L52.7277 20.9449C52.8482 20.8995 52.9576 20.8297 53.0488 20.7401C53.1401 20.6505 53.2112 20.5431 53.2574 20.4248L55.8683 13.7592C55.9874 13.444 56.1914 13.1664 56.4585 12.9559C56.7256 12.7455 57.0458 12.6101 57.385 12.564C57.7926 12.5156 58.205 12.6022 58.5568 12.8101C58.9086 13.018 59.1795 13.3354 59.3267 13.7117L61.9571 20.4248C62.0034 20.5431 62.0744 20.6505 62.1657 20.7401C62.257 20.8297 62.3664 20.8995 62.4869 20.9449L69.3243 23.5275C69.6716 23.6589 69.9703 23.8906 70.181 24.1919C70.3916 24.4933 70.5044 24.8502 70.5044 25.2157C70.5044 25.5812 70.3916 25.9381 70.181 26.2395C69.9703 26.5408 69.6716 26.7724 69.3243 26.9039L62.4869 29.4864C62.3664 29.5319 62.257 29.6016 62.1657 29.6912C62.0744 29.7808 62.0034 29.8883 61.9571 30.0066L59.3267 36.7197C59.1931 37.061 58.9573 37.3545 58.6503 37.5616C58.3434 37.7687 57.9797 37.8797 57.6073 37.8798Z" fill="url(#paint4_linear_930_7833)"/>
<path d="M575.687 205.075L566.012 207.416C564.239 207.845 562.439 206.757 562.014 204.998C561.588 203.239 562.691 201.449 564.465 201.02L574.14 198.679C575.914 198.25 577.713 199.338 578.138 201.097C578.564 202.856 577.461 204.646 575.687 205.075ZM578.068 190.134C577.221 190.338 576.313 190.198 575.563 189.745L567.091 184.622C565.541 183.685 565.048 181.647 565.998 180.105C566.948 178.563 569.004 178.066 570.553 179.003L579.025 184.126C580.595 185.058 581.088 187.097 580.118 188.643C579.658 189.389 578.934 189.924 578.068 190.134ZM590.395 181.206C588.621 181.635 586.822 180.547 586.396 178.788L584.075 169.194C583.65 167.435 584.753 165.645 586.526 165.216C588.3 164.787 590.099 165.875 590.525 167.634L592.846 177.228C593.271 178.987 592.168 180.777 590.395 181.206ZM605.439 183.512C603.665 183.941 601.866 182.853 601.441 181.094C601.237 180.255 601.382 179.352 601.841 178.606L607.035 170.178C607.985 168.636 610.041 168.139 611.59 169.076C613.14 170.013 613.633 172.051 612.683 173.593L607.489 182.022C607.03 182.768 606.286 183.307 605.439 183.512ZM579.44 225.706C577.667 226.135 575.867 225.047 575.442 223.288C575.239 222.448 575.383 221.546 575.843 220.8L581.036 212.371C581.986 210.83 584.042 210.332 585.592 211.269C587.141 212.206 587.634 214.245 586.684 215.786L581.491 224.215C581.031 224.961 580.287 225.501 579.44 225.706ZM601.56 190.142C596.947 187.301 590.866 188.709 587.981 193.279C585.097 197.848 586.497 203.899 591.09 206.744L591.264 206.85L601.136 212.819C601.911 213.288 602.939 213.039 603.414 212.268L611.978 198.37C612.453 197.599 612.206 196.579 611.431 196.111L601.56 190.142ZM657.24 223.811L619.903 201.234C619.128 200.765 618.101 201.014 617.626 201.785L609.061 215.684C608.587 216.454 608.833 217.474 609.608 217.942L646.944 240.519C651.557 243.36 657.639 241.952 660.523 237.383C663.402 232.793 662.007 226.762 657.415 223.917C657.365 223.886 657.31 223.836 657.24 223.811Z" fill="url(#paint5_linear_930_7833)"/>
<path d="M561.076 151.27L473.617 120.427C465.665 117.622 459.152 111.773 455.512 104.167C451.871 96.5602 451.402 87.8191 454.206 79.8664L485.05 -7.59176C485.283 -8.25448 485.244 -8.98291 484.941 -9.61679C484.637 -10.2507 484.095 -10.7381 483.432 -10.9718L425.959 -31.2401C415.356 -34.9796 403.701 -34.3537 393.559 -29.5C383.417 -24.6463 375.618 -15.9625 371.879 -5.35895L301.38 194.546C297.641 205.149 298.267 216.804 303.12 226.946C307.974 237.088 316.658 244.887 327.261 248.626L467.195 297.975C477.798 301.715 489.453 301.089 499.595 296.235C509.737 291.381 517.536 282.698 521.275 272.094L562.693 154.65C562.927 153.987 562.888 153.259 562.584 152.625C562.281 151.991 561.738 151.504 561.076 151.27ZM468.354 230.954L368.401 195.705C365.751 194.77 363.58 192.82 362.366 190.285C361.153 187.749 360.996 184.835 361.931 182.184C362.866 179.534 364.816 177.363 367.351 176.149C369.887 174.936 372.8 174.779 375.451 175.714L475.404 210.963C478.054 211.898 480.225 213.848 481.439 216.383C482.652 218.919 482.809 221.833 481.874 224.484C480.939 227.135 478.989 229.305 476.454 230.519C473.918 231.732 471.005 231.889 468.354 230.954ZM485.978 180.978L386.026 145.729C383.375 144.794 381.204 142.844 379.991 140.308C378.777 137.773 378.621 134.859 379.556 132.208C380.491 129.557 382.44 127.387 384.976 126.173C387.511 124.96 390.425 124.803 393.076 125.738L493.028 160.987C495.679 161.922 497.85 163.872 499.063 166.407C500.277 168.943 500.433 171.857 499.499 174.508C498.564 177.158 496.614 179.329 494.078 180.543C491.543 181.756 488.629 181.913 485.978 180.978Z" fill="url(#paint6_linear_930_7833)"/>
<path d="M563.392 127.215L505.236 5.69466C505.123 5.45937 504.943 5.26287 504.718 5.12987C504.493 4.99687 504.234 4.93329 503.973 4.94713C503.712 4.96098 503.461 5.05164 503.252 5.20769C503.042 5.36375 502.884 5.57826 502.796 5.82424L474.197 86.9167C473.263 89.5676 473.419 92.4813 474.632 95.0168C475.846 97.5524 478.017 99.502 480.668 100.437L561.76 129.035C562.007 129.121 562.274 129.132 562.526 129.067C562.779 129.001 563.007 128.863 563.182 128.668C563.356 128.474 563.469 128.232 563.507 127.974C563.544 127.715 563.504 127.451 563.392 127.215Z" fill="url(#paint7_linear_930_7833)"/>
<defs>
<linearGradient id="paint0_linear_930_7833" x1="65.7422" y1="22.0612" x2="340.171" y2="74.8402" gradientUnits="userSpaceOnUse">
<stop stop-color="#6215E0"/>
<stop offset="0.754166" stop-color="#A36BFF"/>
<stop offset="1" stop-color="#C9A8FF"/>
</linearGradient>
<linearGradient id="paint1_linear_930_7833" x1="215.853" y1="22.913" x2="308.493" y2="46.8283" gradientUnits="userSpaceOnUse">
<stop stop-color="#6215E0"/>
<stop offset="0.754166" stop-color="#A36BFF"/>
<stop offset="1" stop-color="#C9A8FF"/>
</linearGradient>
<linearGradient id="paint2_linear_930_7833" x1="427.355" y1="-56.0819" x2="595.359" y2="117.416" gradientUnits="userSpaceOnUse">
<stop stop-color="#6215E0"/>
<stop offset="0.754166" stop-color="#A36BFF"/>
<stop offset="1" stop-color="#C9A8FF"/>
</linearGradient>
<linearGradient id="paint3_linear_930_7833" x1="519.893" y1="2.09692" x2="579.036" y2="77.305" gradientUnits="userSpaceOnUse">
<stop stop-color="#6215E0"/>
<stop offset="0.754166" stop-color="#A36BFF"/>
<stop offset="1" stop-color="#C9A8FF"/>
</linearGradient>
<linearGradient id="paint4_linear_930_7833" x1="20.5052" y1="4.27272" x2="68.645" y2="35.3795" gradientUnits="userSpaceOnUse">
<stop stop-color="#6215E0"/>
<stop offset="0.754166" stop-color="#A36BFF"/>
<stop offset="1" stop-color="#C9A8FF"/>
</linearGradient>
<linearGradient id="paint5_linear_930_7833" x1="566.027" y1="162.694" x2="649.979" y2="191.618" gradientUnits="userSpaceOnUse">
<stop stop-color="#6215E0"/>
<stop offset="0.754166" stop-color="#A36BFF"/>
<stop offset="1" stop-color="#C9A8FF"/>
</linearGradient>
<linearGradient id="paint6_linear_930_7833" x1="427.355" y1="-56.0819" x2="595.359" y2="117.416" gradientUnits="userSpaceOnUse">
<stop stop-color="#6215E0"/>
<stop offset="0.754166" stop-color="#A36BFF"/>
<stop offset="1" stop-color="#C9A8FF"/>
</linearGradient>
<linearGradient id="paint7_linear_930_7833" x1="519.893" y1="2.09692" x2="579.036" y2="77.305" gradientUnits="userSpaceOnUse">
<stop stop-color="#6215E0"/>
<stop offset="0.754166" stop-color="#A36BFF"/>
<stop offset="1" stop-color="#C9A8FF"/>
</linearGradient>
</defs>
</svg>